<svg xmlns="http://www.w3.org/2000/svg" xmlns:xlink="http://www.w3.org/1999/xlink" width="96" height="96"
    viewBox="0 0 14.17 14.17">
    <defs>
        <path id="a" d="M0 .001h14.168v14.168H0z" />
    </defs>
    <clipPath id="b">
        <use xlink:href="#a" overflow="visible" />
    </clipPath>
     <path class="bg-fill" fill="#C32D6A" d="M0 .001h14.168v14.168H0z" />
    <path class="fg-fill" fill="#FFF" d="M.885 5.122v1.305l6.2-3.204 6.195 3.204V5.122L7.085 1.919z" />

    <path clip-path="url(#b)" class="fg-fill" fill="#FFF"
        d="M6.753 11.712c0 .221-.12.393-.363.512a1.221 1.221 0 0 1-.257.027H1.497c-.342 0-.544-.156-.603-.473l-.009-.066h5.868zM.894 8.521h6.099c.38 0 .722.172 1.025.515.209.259.314.556.314.894v.942c.016.108.064.163.146.163h.033c.115 0 .172-.073.172-.225v-.909c0-.469.217-.853.646-1.156.234-.142.486-.215.755-.215.476 0 .865.221 1.174.66.14.229.206.479.206.744v.941c0 .096.053.146.159.165.097 0 .151-.063.163-.188V9.778c0-.393.184-.725.547-1a1.24 1.24 0 0 1 .727-.225l.217.01v.42h-.25c-.301 0-.545.156-.727.463a1.048 1.048 0 0 0-.092.473v1.021c0 .207-.115.371-.348.498a.898.898 0 0 1-.246.051c-.215 0-.391-.116-.522-.348a.69.69 0 0 1-.058-.289v-.951c0-.361-.191-.648-.578-.858a1.273 1.273 0 0 0-.414-.075c-.213 0-.425.092-.635.266-.193.206-.288.413-.288.619l-.018 1.117a.625.625 0 0 1-.188.338.56.56 0 0 1-.397.164h-.017c-.271 0-.464-.148-.581-.447l-.017-.188v-.941c0-.357-.182-.643-.544-.853a1.182 1.182 0 0 0-.528-.101H.894v-.421zm0 .777h6.018c.296 0 .504.145.62.432l.014.158v.848c0 .377.098.642.291.795a.892.892 0 0 0 .678.291c.362 0 .647-.186.853-.555a.872.872 0 0 0 .089-.365v-.859c0-.329.113-.55.341-.66a.664.664 0 0 1 .255-.064h.045c.238 0 .426.125.553.379a.678.678 0 0 1 .041.191v.858c0 .418.121.71.369.877a.84.84 0 0 0 .547.198h.019c.383 0 .67-.19.856-.571a.802.802 0 0 0 .074-.349V9.896c0-.299.139-.484.416-.563l.082-.017h.229v.438h-.188c-.039 0-.07.02-.101.059v.967c0 .723-.327 1.195-.983 1.42a1.489 1.489 0 0 1-.355.054h-.03c-.522 0-.927-.244-1.207-.729a1.247 1.247 0 0 1-.167-.611v-.946c-.01-.138-.055-.205-.132-.205l-.042-.01c-.119.021-.18.08-.18.174v.852c0 .693-.319 1.166-.961 1.414-.144.039-.27.06-.381.06h-.093c-.38 0-.719-.162-1.016-.479-.222-.275-.33-.563-.33-.86v-.946c0-.146-.057-.223-.166-.223H5.795v.371h.372c.258 0 .437.113.536.339l.05.2-5.784.008-.017-.016-.009.016H.918l-.008-.016H.902l-.008.016v-.025c0-.25.141-.42.421-.513l.115-.009h.447v-.371H.894v-.447zm0 1.642h.95v.488h-.95v-.488zm1.265 0h.917v.488h-.917v-.488zm.049-.824h3.249v-.373H2.208v.373zm1.15.824h.924v.488h-.924v-.488zm1.196 0h.942v.488h-.942v-.488zm1.241 0h.958v.488h-.958v-.488z" />

</svg>