<svg xmlns="http://www.w3.org/2000/svg" width="14.238" height="14.174">
    <path class="fg-fill" fill="#FFF"  d="M2.275 5.118h9.656v7.875H2.275z"/>
    <path class="bg-fill" fill="#C32D6A"  stroke="#FFF" stroke-width=".003" d="M7.107.093c2.267 2.007 4.606 4.081 7.022 6.222l-1.034.791v6.999H1.072v-7.02l-.964-.751L7.107.093zM2.923 8.321v4.37H4.15v-4.34c0-.462.183-.831.555-1.11.177-.113.369-.166.585-.166.369 0 .691.143.964.429.097.123.173.282.232.476v4.712h1.236l.03-4.304c0-.213.076-.488.232-.827a.913.913 0 0 1 .293-.282.976.976 0 0 1 .574-.184h.03c.31 0 .542.063.691.193.16.102.276.249.34.438l.04.146v.342l.01 4.477h1.217l.029-5.071a2.914 2.914 0 0 0-.09-.498c-.109-.416-.358-.745-.747-.99a2.29 2.29 0 0 0-1.333-.41c-.442 0-.814.093-1.11.279l-.692.439a.715.715 0 0 1-.195.08c-.021 0-.149-.09-.39-.263a4.542 4.542 0 0 0-.751-.428 1.457 1.457 0 0 0-.601-.137c-.405 0-.857.144-1.365.429a2.672 2.672 0 0 0-.42.339 2.48 2.48 0 0 0-.476.712 1.489 1.489 0 0 0-.106.574l-.009.575z"/>
</svg>
