<?xml version="1.0" encoding="utf-8"?> 
 <svg xmlns="http://www.w3.org/2000/svg" viewBox="0 0 20 20" width="20" height="20">
            <rect class="bg-fill" fill="#094409" x="0" y="0" rx="3.3" ry="3.3" width="20" height="20"/>

<polygon class="fg-fill" fill="#FFFFFF" points="10.563,4.96 9.566,4.96 9.566,7.295 7.059,7.295 7.059,8.295 9.566,8.295 9.566,15.02 
	10.563,15.02 10.563,8.295 13.071,8.295 13.071,7.295 10.563,7.295 	"/>
<path class="fg-fill" fill="#FFFFFF" d="M20.01,17.014h-4.502V5.968c0-2.017-1.452-3.297-3.312-3.848c-0.692-0.205-1.44-0.308-2.182-0.308
	c-0.743,0-1.491,0.102-2.183,0.308C5.973,2.672,4.52,3.951,4.52,5.968v11.046H0.01c0.033,0.373,0.118,0.729,0.266,1.057h19.458
	C19.881,17.743,19.976,17.387,20.01,17.014z M14.508,17.002H5.519V5.968c0-1.493,1.137-2.459,2.593-2.891
	C8.708,2.9,9.359,2.812,10.014,2.812c0.652,0,1.305,0.088,1.9,0.265c1.455,0.432,2.594,1.398,2.594,2.891V17.002z"/>
</svg>