<?xml version="1.0" encoding="UTF-8"?>
<svg id="a" data-name="Ebene 1" xmlns="http://www.w3.org/2000/svg" width="7.06mm" height="7.06mm" viewBox="0 0 20 20">
  <defs>
    <style>
      .b {
        fill: #638555;
      }

      .b, .c {
        stroke-width: 0px;
      }

      .c {
        fill: #fff;
      }
    </style>
  </defs>
  <rect class="b" width="20" height="20" rx="3.3" ry="3.3"/>
  <path class="c" d="M7.73,3.38c-.16-.06-.33-.1-.5-.12l-.34-.04c-.34.03-.53.06-.57.08-.2.05-.39.12-.57.24-.07,0-.24.14-.53.38-.22.27-.34.44-.36.52-.11.18-.19.38-.24.58-.03.06-.06.24-.08.56.03.35.07.56.09.62.05.2.12.37.21.51.03.09.13.22.32.43.04.07.16.18.37.33.05.06.22.15.51.28.09.02.18.05.27.1-.09.05-.2.17-.35.37-.08.1-.19.28-.3.54-.06.16-.1.33-.12.5l-.04.35c.03.37.07.58.11.64.05.19.1.33.15.4.08.17.15.29.21.35.15.2.28.34.39.4.1.1.23.19.36.25.14.1.33.17.58.24,0,.02.18.04.55.07l.54-.04h.93v.02l.02,3.23v.02h-.01c-.02-.05-.3-.59-.86-1.61l-.46-.45h-.39c-.07.09-.12.19-.17.3.03.32.07.51.12.58l1.74,4.73h1.59l1.76-4.18.21-.9-.18-.55c-.17.02-.34.05-.51.08l-.32.36c-.19.27-.36.55-.52.83-.29.59-.44.89-.45.89v-3.36h1.14l.54.04c.37-.03.56-.05.56-.07.25-.07.43-.14.52-.21.13-.06.29-.17.49-.34.07-.05.19-.18.36-.39.13-.23.21-.39.25-.5.09-.27.14-.47.14-.61v-.22c0-.38-.03-.56-.06-.56-.06-.26-.13-.43-.2-.51-.05-.13-.12-.25-.22-.36-.09-.11-.19-.22-.3-.32.27-.13.43-.22.49-.29.16-.1.29-.23.39-.39.12-.12.19-.22.21-.29.09-.13.15-.27.19-.43.07-.21.11-.38.11-.52.01,0,.01-.07.01-.22-.02-.34-.04-.53-.07-.58-.05-.22-.14-.43-.26-.61,0-.05-.13-.22-.38-.5-.26-.21-.41-.32-.46-.32-.19-.13-.41-.21-.64-.26,0-.02-.18-.04-.54-.07-.39.03-.58.06-.58.08l-.21.05c-.02-.26-.04-.41-.07-.47-.06-.23-.16-.44-.29-.64,0-.03-.05-.1-.15-.22-.12-.16-.27-.3-.43-.42-.09-.08-.27-.19-.56-.32-.17-.06-.35-.1-.54-.12l-.29-.03c-.37.03-.57.06-.63.1-.2.05-.39.13-.57.24-.05,0-.18.11-.4.3-.14.13-.27.28-.38.44-.18.31-.26.5-.26.57-.06.15-.1.31-.1.47Z"/>
</svg>