<?xml version="1.0" encoding="UTF-8"?>
<svg id="a" data-name="Ebene 1" xmlns="http://www.w3.org/2000/svg" width="7.06mm" height="7.06mm" viewBox="0 0 20.01 20">
  <defs>
    <style>
      .b {
        fill: #638555;
      }

      .b, .c {
        stroke-width: 0px;
      }

      .c {
        fill: #fff;
      }
    </style>
  </defs>
  <rect class="b" x="0" width="20" height="20" rx="3.3" ry="3.3"/>
  <path class="c" d="M6.21,11.54c-.54-.37-1.09-.75-2.14-.75s-1.6.37-2.14.75c-.29.2-.58.4-1,.4-.38,0-.67-.17-.93-.35v1.65c.27.08.56.14.94.14,1.06,0,1.59-.37,2.14-.75.29-.2.58-.4,1-.4s.72.2,1.01.4c.54.37,1.09.74,2.12.74v-1.43c-.41,0-.71-.2-1-.4Z"/>
  <path class="c" d="M6.21,8.08c-.54-.37-1.09-.75-2.14-.75s-1.6.37-2.14.75c-.29.2-.58.4-1,.4-.38,0-.67-.17-.93-.35v1.65c.27.08.56.14.94.14,1.06,0,1.59-.37,2.14-.75.29-.2.58-.4,1-.4s.72.2,1.01.4c.54.37,1.09.74,2.12.74v-1.43c-.41,0-.71-.2-1-.4Z"/>
  <path class="c" d="M6.21,4.77c-.54-.37-1.09-.75-2.14-.75s-1.6.37-2.14.75c-.29.2-.58.4-1,.4-.38,0-.67-.17-.93-.35v1.65c.27.08.56.14.94.14,1.06,0,1.59-.37,2.14-.75.29-.2.58-.4,1-.4s.72.2,1.01.4c.54.37,1.09.74,2.12.74v-1.43c-.41,0-.71-.2-1-.4Z"/>
  <path class="c" d="M20.01,15.52c-.14.06-.29.1-.47.1-.42,0-.72-.2-1-.4-.54-.37-1.08-.75-2.14-.75s-1.6.37-2.14.75c-.29.2-.61.4-1.03.4,0,0,.23,1.42.24,1.42.9-.05,1.43-.39,1.93-.74.29-.2.58-.4,1.01-.4s.71.2,1,.4c.54.37,1.08.75,2.14.75.17,0,.31-.02.46-.04v-1.49Z"/>
  <polygon class="c" points="12.7 20 10.51 2.28 8.29 2.28 8.29 20 12.7 20"/>
</svg>