<?xml version="1.0" encoding="UTF-8"?>
<svg id="a" data-name="Ebene 1" xmlns="http://www.w3.org/2000/svg" width="7.06mm" height="7.06mm" viewBox="0 0 20 20">
  <defs>
    <style>
      .b {
        fill: #638555;
      }

      .b, .c {
        stroke-width: 0px;
      }

      .c {
        fill: #fff;
      }
    </style>
  </defs>
  <rect class="b" width="20" height="20" rx="3.3" ry="3.3"/>
  <path class="c" d="M7.31,3.94h-.01c-.27-.1-.56-.16-.86-.17h-.06c-.51,0-1.02.15-1.51.46-.78.58-1.17,1.32-1.17,2.22h0c0,.59.19,1.14.57,1.67.23.26.42.43.56.51.29.21.55.34.76.37.13.02.21.05.25.09-.05.04-.3.15-.75.33-.36.12-.69.42-1,.89-.25.42-.38.9-.39,1.39,0,.56.18,1.1.54,1.64.57.69,1.28,1.04,2.12,1.04.45,0,.86-.09,1.22-.29.1-.06.3-.25.62-.59.23-.23.37-.35.45-.35h0s.03.01.03.05c-.07.35-.11.71-.14,1.06-.03.44-.1.88-.21,1.31-.12.51-.28,1.02-.5,1.5-.14.31-.32.6-.53.87-.24.26-.42.41-.53.44-.15.05-.31.09-.47.13,1.28.05,1.94.03,1.97-.05.12-.04.23-.19.34-.46.12-.27.27-.66.47-1.17.3-.81.45-1.45.45-1.91.05-1.04.11-1.61.19-1.73.04-.08.11-.12.21-.12h.04c.19,0,.27.11.27.33-.01.57.05,1.26.19,2.06.14.59.31,1.14.5,1.64.41.95.67,1.42.81,1.42.15.03.65.03,1.5-.02-.17-.05-.37-.19-.58-.41-.19-.21-.35-.45-.47-.7-.15-.29-.27-.59-.39-.9-.14-.44-.25-.89-.34-1.34-.09-.58-.16-1.17-.2-1.76,0-.13.01-.19.03-.19.07.12.16.24.27.36.29.31.5.48.62.53.43.25.87.38,1.33.38h.1c.63,0,1.22-.24,1.77-.71.56-.56.83-1.2.83-1.96v-.05c0-.6-.22-1.17-.65-1.71-.19-.2-.4-.38-.64-.54-.32-.17-.52-.25-.6-.25-.07-.04-.15-.06-.24-.06h0s.25-.12.68-.29c.17-.06.34-.15.5-.29.64-.57.96-1.26.96-2.07,0-.65-.24-1.25-.7-1.79-.57-.57-1.22-.86-1.95-.86-.33,0-.57.05-.71.14-.05.03-.11.05-.16.05-.1,0-.15-.09-.15-.28v-.44c.01-.09-.06-.34-.21-.75-.08-.18-.25-.43-.52-.72-.5-.49-1.18-.77-1.89-.77-.68,0-1.3.25-1.86.75-.29.31-.5.6-.61.87-.06.18-.11.36-.13.55-.04.22-.06.44-.06.66ZM10.02,2.67c.29,0,.56.12.81.37.18.21.28.48.27.76h0c0,.12-.04.5-.11,1.14v.18c-.01.44.14.72.45.83.09.02.16.03.2.03.23,0,.61-.13,1.16-.38.26-.1.53-.16.81-.18h.03c.29,0,.56.15.82.44.14.19.22.42.23.65h0c0,.57-.34.96-1.02,1.19-.15.06-.52.17-1.09.35-.81.27-1.22.63-1.22,1.09s.38.83,1.14,1.07c.52.17.92.3,1.21.4.21.08.4.18.57.31.27.21.42.53.42.87v.03c0,.34-.15.63-.46.89-.18.11-.39.18-.6.19h-.07c-.28,0-.65-.14-1.13-.39-.31-.22-.62-.43-.93-.64-.54-.38-1.07-.57-1.59-.57s-1.19.26-1.97.79c-.66.41-1.11.64-1.36.69-.06.02-.13.03-.2.03h-.04c-.32,0-.63-.14-.84-.39-.18-.22-.28-.48-.29-.77,0-.25.15-.52.46-.82.13-.1.26-.18.39-.24.3-.1.78-.24,1.43-.42.71-.22,1.06-.57,1.06-1.04v-.07c0-.43-.4-.77-1.21-1.03-.42-.13-.83-.29-1.23-.47-.21-.11-.4-.23-.59-.37-.18-.23-.28-.51-.27-.81,0-.39.2-.71.61-.96.13-.07.27-.1.42-.11h.07c.31,0,.73.14,1.29.42.27.12.47.18.61.18h.08c.25,0,.44-.14.56-.42.04-.1.06-.21.06-.32v-.1c0-.07-.04-.43-.11-1.05v-.07c.01-.36.04-.54.07-.54.03-.13.12-.28.27-.44.22-.23.52-.35.83-.33Z"/>
</svg>